<svg xmlns="http://www.w3.org/2000/svg" width="60" height="60"><g fill="none" fill-rule="evenodd"><path d="M-6-5h72v72H-6z"/><path fill="#1A9CB7" fill-rule="nonzero" d="M30.06.733c-8.072 0-14.663 6.591-14.663 14.664 0 5.405 2.955 10.15 7.332 12.693-5.021 1.283-9.684 3.822-13.38 7.447C3.894 40.883.732 48.327.732 55.905c-.003.458.004.918.023 1.375a2.2 2.2 0 0 0 2.2 2.108h54.21a2.2 2.2 0 0 0 2.2-2.108c.018-.457.025-.917.022-1.375 0-7.578-3.162-15.022-8.615-20.368-3.697-3.625-8.36-6.164-13.38-7.447 4.376-2.543 7.331-7.288 7.331-12.693 0-8.073-6.59-14.664-14.663-14.664zm0 4.4a10.23 10.23 0 0 1 10.265 10.264c0 5.695-4.57 10.264-10.264 10.264a10.232 10.232 0 0 1-10.265-10.264c0-5.695 4.57-10.265 10.265-10.265zm0 26.394c6.51 0 13.052 2.648 17.643 7.149 4.368 4.282 6.948 10.275 7.194 16.313H5.224c.247-6.038 2.826-12.03 7.194-16.313 4.591-4.501 11.132-7.149 17.643-7.149z"/></g></svg>