<svg xmlns="http://www.w3.org/2000/svg" xmlns:xlink="http://www.w3.org/1999/xlink" width="58" height="62"><defs><path id="a" d="M65.972 67.47V6H8v61.47h57.97z"/></defs><g fill="none" fill-rule="evenodd" transform="translate(-8 -6)"><path d="M0 0h72v72H0z"/><mask id="b" fill="#fff"><use xlink:href="#a"/></mask><path fill="#1A9CB7" d="M62.224 56.26a3.483 3.483 0 0 1-3.479 3.48h-2.413V9.747h2.413a3.485 3.485 0 0 1 3.479 3.48V56.26zm-9.64 3.48H34.11c-.357 0-.697-.069-1.017-.17l11.775-11.777c1.545-1.545 2.437-3.575 2.512-5.714.075-2.19-.712-4.222-2.212-5.72-1.429-1.428-3.36-2.215-5.442-2.215-2.212 0-4.4.916-5.993 2.514l-3.104 3.104V13.23a3.485 3.485 0 0 1 3.481-3.48h18.474v49.99zM58.745 6H34.11a7.236 7.236 0 0 0-7.229 7.229v9.54l-.079-.075L8.19 42.537 8 67.47h3.748l.176-23.44L26.88 28.088V43.51l-6.148 6.149 2.65 2.65 13-13c.899-.901 2.118-1.417 3.343-1.417 1.08 0 2.073.395 2.792 1.116.757.759 1.153 1.802 1.116 2.942a4.756 4.756 0 0 1-1.416 3.193L19.893 67.47h5.3l5.09-5.09a7.176 7.176 0 0 0 3.827 1.107h24.635c3.983 0 7.227-3.241 7.227-7.226V13.229C65.972 9.242 62.728 6 58.745 6z" mask="url(#b)"/></g></svg>