<svg xmlns="http://www.w3.org/2000/svg" width="68" height="49"><g fill="none" fill-rule="evenodd"><path d="M-3-14h72v72H-3z"/><g fill="#1A9CB7" fill-rule="nonzero" stroke="#1A9CB7" stroke-width=".2"><path d="M67.323 22.832l-6.35-14.817H49.04V.46H.677v40.222h7.76a6.907 6.907 0 0 0-.027.554 6.805 6.805 0 0 0 6.798 6.797 6.805 6.805 0 0 0 6.798-6.797c0-.187-.013-.37-.028-.554h27.148a6.907 6.907 0 0 0-.028.554c0 3.749 3.05 6.797 6.8 6.797a6.805 6.805 0 0 0 6.797-6.797c0-.187-.014-.37-.028-.554h4.656v-17.85zM15.208 44.17a2.938 2.938 0 0 1-2.935-2.934 2.938 2.938 0 0 1 2.935-2.934 2.937 2.937 0 0 1 2.934 2.934 2.938 2.938 0 0 1-2.934 2.934zm28.548-7.352H20.364a6.78 6.78 0 0 0-5.156-2.38 6.78 6.78 0 0 0-5.157 2.38H4.54V4.325h40.636v32.494h-1.421zm12.142 7.352a2.938 2.938 0 0 1-2.936-2.934 2.938 2.938 0 0 1 2.936-2.934 2.937 2.937 0 0 1 2.934 2.934 2.937 2.937 0 0 1-2.934 2.934zm7.561-7.352h-2.405a6.78 6.78 0 0 0-5.156-2.38 6.78 6.78 0 0 0-5.158 2.38h-1.7v-24.94h9.386l5.034 11.746v13.194z"/><path d="M25.066 7.412c-7.052 0-12.79 5.737-12.79 12.79 0 7.053 5.738 12.79 12.79 12.79 7.052 0 12.79-5.737 12.79-12.79 0-7.053-5.738-12.79-12.79-12.79zm0 21.716c-4.923 0-8.926-4.004-8.926-8.926 0-4.922 4.004-8.926 8.926-8.926 4.922 0 8.926 4.004 8.926 8.926.001 4.922-4.003 8.926-8.926 8.926z"/><path d="M29.364 18.27h-2.366v-3.154a1.932 1.932 0 1 0-3.863 0v5.086c0 1.067.864 1.932 1.931 1.932h4.298a1.932 1.932 0 1 0 0-3.864z"/></g></g></svg>