<svg class="icon" style="width:1em;height:1em;vertical-align:middle" viewBox="0 0 1024 1024" xmlns="http://www.w3.org/2000/svg" fill="currentColor" overflow="hidden"><path d="M744.54 0l272.398 272.398V1024H0V0h744.54z" fill="#EB5F5F"/><path d="M744.54 0l272.398 272.398H835.33a90.79 90.79 0 0 1-90.79-90.79V0z" fill="#000" fill-opacity=".3"/><path d="M684.569 799.03c-51.356 0-96.977-88.05-121.44-145.082a885.018 885.018 0 0 0-128.784-43.22c-38.304 25.282-102.71 62.767-152.427 62.767-30.96 0-52.966-15.48-61.13-42.372-6.497-22.034-.819-37.514 5.707-45.65 13.05-17.937 39.943-26.892 80.705-26.892 32.599 0 74.152 5.707 120.62 17.119a727.873 727.873 0 0 0 87.23-71.75c-12.23-57.062-25.281-149.152 8.136-191.524 16.3-20.395 41.582-26.892 71.75-17.938 33.39 9.774 45.622 30.17 49.718 45.65 13.842 55.423-49.717 130.394-92.937 174.433 9.774 38.304 22.034 78.247 37.486 114.914 61.948 27.711 135.309 68.473 143.473 113.275 3.248 15.508-1.639 30.17-13.842 42.4-10.621 8.984-22.034 13.842-34.265 13.842zm-75.79-123.896c30.96 62.767 60.31 92.09 75.79 92.09 2.457 0 5.706-.792 10.593-4.888 5.706-5.706 5.706-9.774 4.887-13.022-3.249-16.3-29.322-43.22-91.27-74.18zM307.2 591.18c-39.943 0-51.355 9.774-54.604 13.842-.847 1.638-4.096 5.706-.847 17.118 2.457 9.802 8.983 19.576 30.169 19.576 26.101 0 63.558-14.689 107.597-40.762-31.779-6.497-59.49-9.774-82.315-9.774zm161.382-4.887c26.074 7.345 52.966 16.3 78.248 26.073a810.895 810.895 0 0 1-22.824-71.75 1498.006 1498.006 0 0 1-55.424 45.677zm101.073-263.274a26.27 26.27 0 0 0-21.186 9.774c-17.119 21.186-18.757 75-5.707 143.445 49.717-52.966 76.61-101.864 70.084-127.965-.819-4.068-4.067-15.48-26.892-22.005a44.35 44.35 0 0 0-16.3-3.249z" fill="#FFF"/></svg>