<svg xmlns="http://www.w3.org/2000/svg" width="63" height="56"><g fill="none" fill-rule="evenodd"><path d="M-4-10h72v72H-4z"/><path fill="#1A9CB7" fill-rule="nonzero" d="M.854 5.12V0H12.71l.592 1.732L24.61 34.798l-2.423-1.732h34.56l-2.533 2.188 3.2-21.76 2.32 2.923-46.537-3.906.429-5.102 46.535 3.906 2.715.228-.396 2.696-3.2 21.76-.322 2.187h-38.6l-.593-1.732L8.458 3.388 10.88 5.12H.854zm27.412 44.419a5.493 5.493 0 1 1-10.986 0 5.493 5.493 0 0 1 5.494-5.493 5.492 5.492 0 0 1 5.492 5.493zm33.708 0a5.494 5.494 0 1 1-10.987 0 5.494 5.494 0 0 1 10.987 0z"/></g></svg>