<svg xmlns="http://www.w3.org/2000/svg" width="64" height="64"><g fill="none" fill-rule="evenodd"><path d="M-4-4h72v72H-4z"/><path fill="#1A9CB7" fill-rule="nonzero" stroke="#1A9CB7" stroke-width="1.5" d="M14.809 34.293c-3.854 0-7 3.146-7 7 0 2.58 1.41 4.845 3.5 6.06-2.397.612-4.623 1.824-6.388 3.554C2.318 53.46.808 57.013.809 60.63c-.002.219.002.439.01.657a1.05 1.05 0 0 0 1.05 1.006h25.879a1.05 1.05 0 0 0 1.05-1.006c.009-.218.012-.438.01-.657 0-3.617-1.509-7.17-4.112-9.723-1.765-1.73-3.99-2.942-6.387-3.555a7.015 7.015 0 0 0 3.5-6.059c0-3.854-3.147-7-7-7zm0 2.1c2.718 0 4.9 2.181 4.9 4.9 0 2.719-2.182 4.9-4.9 4.9a4.884 4.884 0 0 1-4.9-4.9c0-2.719 2.18-4.9 4.9-4.9zm0 12.6c3.107 0 6.23 1.264 8.421 3.412 2.086 2.045 3.317 4.905 3.435 7.788H2.952c.118-2.883 1.35-5.743 3.435-7.788 2.191-2.148 5.314-3.412 8.422-3.412zm34-14.7c-3.854 0-7 3.146-7 7 0 2.58 1.41 4.845 3.5 6.06-2.397.612-4.623 1.824-6.388 3.554-2.603 2.552-4.113 6.106-4.112 9.723-.002.219.002.439.01.657a1.05 1.05 0 0 0 1.05 1.006h25.879a1.05 1.05 0 0 0 1.05-1.006c.009-.218.012-.438.01-.657 0-3.617-1.509-7.17-4.112-9.723-1.765-1.73-3.99-2.942-6.387-3.555a7.015 7.015 0 0 0 3.5-6.059c0-3.854-3.147-7-7-7zm0 2.1c2.718 0 4.9 2.181 4.9 4.9 0 2.719-2.182 4.9-4.9 4.9a4.884 4.884 0 0 1-4.9-4.9c0-2.719 2.18-4.9 4.9-4.9zm0 12.6c3.107 0 6.23 1.264 8.421 3.412 2.086 2.045 3.317 4.905 3.435 7.788H36.952c.118-2.883 1.35-5.743 3.435-7.788 2.191-2.148 5.314-3.412 8.422-3.412zm-16-47.7c-3.854 0-7 3.146-7 7 0 2.58 1.41 4.845 3.5 6.06-2.397.612-4.623 1.824-6.388 3.554-2.603 2.552-4.113 6.106-4.112 9.723-.002.219.002.439.01.657a1.05 1.05 0 0 0 1.05 1.006h25.879a1.05 1.05 0 0 0 1.05-1.006c.009-.218.012-.438.01-.657 0-3.617-1.509-7.17-4.112-9.723-1.765-1.73-3.99-2.942-6.387-3.555a7.015 7.015 0 0 0 3.5-6.059c0-3.854-3.147-7-7-7zm0 2.1c2.718 0 4.9 2.181 4.9 4.9 0 2.719-2.182 4.9-4.9 4.9a4.884 4.884 0 0 1-4.9-4.9c0-2.719 2.18-4.9 4.9-4.9zm0 12.6c3.107 0 6.23 1.264 8.421 3.412 2.086 2.045 3.317 4.905 3.435 7.788H20.952c.118-2.883 1.35-5.743 3.435-7.788 2.191-2.148 5.314-3.412 8.422-3.412z"/></g></svg>