<svg xmlns="http://www.w3.org/2000/svg" width="20" height="21"><g fill="none" fill-rule="evenodd"><path d="M-5-5h30v30H-5z"/><path fill="#202020" d="M13.834 13.114c2.71-3.369 2.197-7.909-.66-10.618-2.855-2.71-7.249-2.71-10.178-.073-2.93 2.636-3.368 7.03-1.098 10.252 2.196 3.148 6.737 4.393 10.544 1.684 1.978 1.977 3.881 3.954 5.785 5.858.44-.44.806-.879 1.318-1.318-1.903-1.904-3.807-3.881-5.711-5.785zM7.975 14.87c-3.588 0-6.59-3.075-6.59-6.737 0-3.734 3.002-6.737 6.664-6.737 3.661 0 6.663 3.003 6.663 6.737a6.72 6.72 0 0 1-6.737 6.737z"/></g></svg>