<svg xmlns="http://www.w3.org/2000/svg" width="64" height="64"><g fill="none" fill-rule="evenodd"><path d="M-5-4h72v72H-5z"/><g fill="#1A9CB7" fill-rule="nonzero" stroke="#1A9CB7" stroke-width=".2"><path d="M2.216 39.696c.923-.3 1.923.201 2.222 1.124 4.879 14.764 20.856 22.804 35.62 17.922C54.822 53.849 62.862 37.874 57.98 23.11 53.1 8.356 37.125.319 22.36 5.2a27.935 27.935 0 0 0-12.106 7.95l5.241-.861a1.742 1.742 0 0 1 2.022 1.448 1.747 1.747 0 0 1-1.447 2.021l-9.674 1.597c-1.012.163-1.86-.499-2.021-1.447L2.777 6.236a1.748 1.748 0 0 1 1.448-2.022 1.742 1.742 0 0 1 2.021 1.448l.936 5.641c3.732-4.331 8.6-7.638 14.079-9.448C37.86-3.637 55.833 5.4 61.325 22.012c5.49 16.6-3.508 34.735-20.158 40.078C24.02 67.58 6.596 58.108 1.092 41.932a1.762 1.762 0 0 1 1.124-2.236z"/><path d="M50.413 21.783a1.61 1.61 0 0 0-1.15-1.183l-17.11-8.299a1.676 1.676 0 0 0-1.432 0l-17.335 8.402a1.64 1.64 0 0 0-.929 1.415l-.001 21.16c0 .628.366 1.208.927 1.475l17.274 8.372.026.025.091.03.121.081h.095l.087.043h.08l.053.017h.112-.005c.045.003.088.007.126.007.04 0 .098 0 .167-.01a.774.774 0 0 0 .168-.024l.064-.016.033-.01h.025l.106-.043a1.02 1.02 0 0 0 .12-.049.442.442 0 0 0 .08-.04l17.348-8.411a1.65 1.65 0 0 0 .925-1.472V21.816l-.066-.033zm-20.618 9.85v17.43l-14.064-6.817V24.814l14.064 6.82zm3.275 0l5.939-2.882v7.39a1.638 1.638 0 0 0 3.275 0v-8.984l4.902-2.377v17.432L33.07 49.064v-17.43zm-5.74-14.048l4.104-1.993 13.603 6.595-4.104 1.993-13.604-6.595zm9.85 8.413l-5.746 2.785-13.604-6.595 5.747-2.786 13.603 6.596z"/></g></g></svg>